<?xml version="1.0" standalone="no"?>
<!DOCTYPE svg PUBLIC "-//W3C//DTD SVG 20010904//EN"
 "http://www.w3.org/TR/2001/REC-SVG-20010904/DTD/svg10.dtd">
<svg version="1.0" xmlns="http://www.w3.org/2000/svg" className="logo-ext"
 width="170.000000pt" height="60.000000pt" viewBox="0 0 598.000000 194.000000"
 preserveAspectRatio="xMidYMid meet">

<g transform="translate(0.000000,194.000000) scale(0.100000,-0.100000)"
fill="#fff" stroke="none">
<path d="M1275 1834 c-283 -188 -459 -434 -489 -686 -31 -252 196 -559 615
-831 118 -76 269 -162 269 -153 0 3 -42 38 -92 79 -121 96 -294 270 -374 377
-114 151 -164 271 -164 391 0 53 2 59 37 90 66 58 193 107 438 170 l150 38
-225 -6 c-248 -7 -317 3 -366 52 -72 72 19 258 222 455 51 50 90 90 85 90 -4
0 -52 -30 -106 -66z"/>
<path d="M624 1610 c-152 -40 -283 -118 -391 -234 -216 -230 -274 -583 -144
-869 98 -218 298 -387 529 -448 101 -27 288 -30 381 -6 134 36 251 96 339 174
44 39 46 42 31 58 -16 16 -20 15 -71 -23 -117 -89 -258 -135 -413 -136 -120 0
-199 19 -310 74 -148 73 -251 177 -321 325 -52 109 -69 184 -68 310 0 199 61
352 195 492 122 128 306 213 461 213 53 0 58 2 87 39 26 32 28 40 15 45 -36
14 -250 5 -320 -14z"/>
<path d="M1232 1574 c-56 -28 -89 -65 -98 -112 -5 -24 -1 -36 19 -56 35 -34
87 -34 156 0 88 44 120 130 65 173 -36 28 -79 26 -142 -5z"/>
<path d="M1985 1431 c-106 -27 -204 -144 -205 -246 0 -50 29 -98 72 -122 28
-15 67 -19 268 -23 l235 -5 3 -27 c3 -21 -3 -30 -27 -42 -25 -13 -74 -16 -289
-16 l-259 0 -33 -37 c-18 -21 -49 -55 -69 -76 l-36 -38 340 3 c327 3 342 4
381 25 83 44 154 147 154 223 0 48 -30 100 -71 122 -30 16 -60 18 -252 18
-131 0 -226 4 -238 10 -30 16 -24 57 10 74 25 13 114 15 617 15 324 0 599 -3
611 -6 29 -7 35 -27 23 -73 -17 -63 -22 -64 -244 -70 -221 -6 -243 -11 -313
-79 -49 -46 -60 -68 -87 -169 l-25 -92 74 0 74 0 11 40 c5 22 15 58 20 80 6
21 16 43 23 47 6 4 102 10 212 13 228 6 261 15 334 90 74 77 112 233 72 297
-45 72 -3 68 -716 70 -352 1 -653 -2 -670 -6z"/>
<path d="M3645 1431 c-69 -18 -148 -79 -179 -139 -21 -41 -96 -315 -96 -350 0
-90 71 -145 180 -140 l62 3 2 55 c1 30 5 63 10 73 7 14 3 17 -26 17 -19 0 -43
6 -53 14 -18 13 -17 18 16 142 20 77 43 138 56 154 21 25 22 25 215 28 214 3
234 0 243 -27 6 -19 -30 -162 -61 -247 -16 -46 -45 -64 -100 -64 -32 0 -35 -2
-27 -22 4 -13 8 -47 7 -75 -1 -51 0 -53 26 -53 47 0 118 30 162 70 45 39 76
97 102 190 8 30 25 87 36 126 25 89 25 140 0 181 -40 66 -49 68 -310 70 -129
1 -248 -2 -265 -6z"/>
<path d="M4504 1429 c-54 -16 -127 -72 -157 -120 -18 -30 -48 -121 -87 -268
-33 -122 -60 -227 -60 -232 0 -5 33 -9 74 -9 l74 0 11 33 c5 17 31 115 57 216
33 126 55 193 70 210 l22 26 192 3 c106 2 202 1 215 -2 30 -8 37 -30 25 -77
-17 -63 -35 -69 -195 -69 l-141 0 -52 -74 c-29 -41 -52 -77 -52 -80 0 -3 33
-6 73 -6 l72 -1 65 -89 65 -90 104 0 c120 0 118 -6 36 103 -30 41 -55 76 -55
79 0 3 15 9 34 12 47 9 118 59 150 105 33 47 66 148 66 199 0 44 -28 94 -67
119 -24 16 -55 18 -268 20 -132 1 -254 -2 -271 -8z"/>
<path d="M5150 1422 c0 -10 5 -44 11 -75 l12 -57 108 -1 c122 -2 125 -2 133
-9 2 -3 -13 -70 -34 -148 -22 -78 -49 -178 -60 -221 -11 -44 -23 -87 -26 -95
-5 -14 5 -16 69 -16 l75 0 11 33 c5 17 35 124 66 236 31 113 59 209 62 214 2
4 51 8 106 7 56 -1 109 -1 119 -1 17 1 118 120 118 140 0 8 -110 11 -385 11
-367 0 -385 -1 -385 -18z"/>
<path d="M3698 953 c-21 -5 -31 -32 -18 -48 7 -8 3 -15 -15 -23 -29 -13 -32
-34 -8 -53 16 -14 203 -23 203 -9 0 3 -5 11 -12 18 -9 9 -9 15 0 24 7 7 12 16
12 20 0 12 -34 10 -47 -3 -7 -7 -17 -8 -29 -1 -16 9 -16 10 4 21 58 31 -13 74
-90 54z m57 -24 c10 -15 -1 -23 -20 -15 -9 3 -13 10 -10 16 8 13 22 13 30 -1z
m-11 -65 c20 -8 20 -20 0 -28 -19 -7 -57 11 -49 25 7 10 26 12 49 3z"/>
<path d="M761 889 c-12 -35 -35 -88 -52 -117 -44 -77 -168 -203 -260 -263 -43
-29 -77 -54 -75 -56 6 -7 127 24 206 52 110 40 224 101 280 152 28 25 50 49
50 55 0 5 -14 30 -31 54 -17 25 -46 77 -64 116 l-32 71 -22 -64z"/>
<path d="M3074 742 c-6 -4 -30 -40 -53 -80 -31 -53 -51 -77 -71 -84 -29 -10
-49 -40 -31 -46 6 -2 -3 -27 -19 -56 -27 -47 -40 -106 -24 -106 18 0 45 24 40
36 -6 16 24 86 52 121 12 14 34 23 71 28 62 8 61 12 10 -103 -16 -35 -29 -68
-29 -73 0 -24 33 -2 113 77 48 48 87 80 87 73 0 -8 -7 -36 -15 -63 -13 -44
-13 -52 0 -73 17 -25 44 -30 63 -11 10 10 15 10 21 -1 6 -10 20 -12 44 -8 44
7 130 48 135 65 3 9 -14 4 -47 -12 -61 -31 -91 -34 -91 -7 0 25 18 38 66 46
81 13 152 135 79 135 -31 0 -135 -95 -170 -155 -17 -29 -33 -45 -46 -45 -29 0
-33 23 -15 77 21 60 21 93 0 93 -9 0 -46 -27 -82 -60 -36 -32 -67 -58 -69 -57
-1 2 8 30 21 62 38 97 40 105 19 105 -10 0 -29 -7 -41 -16 -12 -8 -35 -14 -52
-12 l-29 3 44 69 c25 38 45 73 45 78 0 10 -11 10 -26 0z m396 -189 c0 -15 -45
-53 -64 -53 -18 0 -17 3 9 30 26 28 55 40 55 23z"/>
<path d="M4195 732 c-90 -57 -260 -250 -271 -309 -10 -52 8 -66 75 -58 90 11
239 80 219 100 -3 3 -34 -8 -69 -25 -82 -38 -149 -49 -168 -26 -11 13 -9 22
12 58 55 94 212 243 242 231 9 -3 15 -18 15 -39 0 -22 5 -34 13 -34 21 0 39
42 35 81 -3 31 -6 34 -38 37 -21 1 -47 -5 -65 -16z"/>
<path d="M4892 688 c-36 -61 -66 -96 -113 -131 -17 -12 -20 -20 -11 -23 9 -4
4 -20 -18 -59 -31 -54 -38 -89 -20 -100 17 -10 40 15 40 42 0 23 27 82 52 114
8 9 37 20 68 24 102 14 124 42 29 37 l-61 -4 29 44 c65 96 76 118 58 118 -9 0
-32 -27 -53 -62z"/>
<path d="M2912 718 c-11 -11 -246 -13 -327 -2 -31 4 -46 1 -65 -14 -21 -17
-22 -22 -11 -35 17 -22 7 -49 -29 -76 -24 -17 -28 -26 -21 -39 7 -12 1 -28
-24 -62 -31 -43 -65 -103 -65 -115 0 -3 6 -5 14 -5 8 0 35 34 61 75 25 41 52
81 59 88 8 8 50 13 122 15 60 2 117 5 127 8 35 11 10 29 -39 30 -155 2 -164 3
-164 22 0 9 7 26 16 37 18 25 118 35 219 23 85 -10 131 -2 150 25 21 30 3 51
-23 25z"/>
<path d="M4521 604 c-17 -13 -20 -19 -10 -25 13 -8 2 -40 -55 -171 -26 -61 0
-48 100 46 49 46 90 83 92 81 2 -2 -4 -31 -14 -64 -16 -59 -16 -62 1 -81 10
-11 26 -20 35 -20 26 0 33 27 9 33 -23 6 -24 29 -3 90 32 96 -2 101 -92 15
-35 -33 -64 -57 -64 -52 0 5 11 36 25 69 38 92 30 117 -24 79z"/>
<path d="M5221 580 c-44 -46 -51 -49 -44 -19 4 16 2 20 -8 17 -13 -4 -22 -18
-52 -83 -8 -16 -24 -49 -37 -73 -23 -45 -19 -72 6 -37 89 123 120 158 149 171
30 12 45 31 45 55 0 19 -21 8 -59 -31z"/>
<path d="M2852 594 c-12 -8 -22 -24 -22 -36 0 -11 -21 -58 -46 -104 -45 -82
-48 -107 -8 -61 25 28 100 155 108 184 9 28 -6 36 -32 17z"/>
<path d="M1666 578 c-8 -12 -13 -25 -10 -30 8 -12 716 -8 732 4 6 6 12 19 12
29 0 18 -14 19 -359 19 -358 0 -360 0 -375 -22z"/>
<path d="M3611 583 c-38 -19 -71 -66 -71 -101 0 -13 7 -36 15 -52 15 -30 15
-30 -12 -30 -16 0 -35 5 -43 10 -10 6 -20 4 -33 -7 -24 -22 -6 -33 54 -33 63
0 89 27 70 73 -25 61 -24 74 4 103 19 19 30 23 37 16 8 -8 7 -16 -2 -27 -7 -8
-10 -18 -8 -21 8 -7 48 51 48 70 0 20 -16 20 -59 -1z"/>
<path d="M3754 575 c-24 -14 -47 -38 -54 -56 -13 -31 -13 -36 15 -101 6 -15 2
-18 -20 -18 -14 0 -35 4 -45 10 -20 11 -47 -11 -35 -30 9 -14 97 -12 118 4 21
16 22 54 1 84 -20 30 -11 67 21 88 31 20 44 11 26 -17 -22 -36 -4 -32 24 5 44
57 18 73 -51 31z"/>
<path d="M4355 548 c-67 -61 -105 -117 -105 -154 0 -25 2 -26 38 -22 45 7 134
48 140 66 3 9 -15 4 -47 -12 -61 -31 -91 -34 -91 -7 0 25 18 38 66 46 23 3 51
15 63 26 29 27 52 75 45 93 -12 30 -51 17 -109 -36z m75 4 c0 -17 -42 -52 -62
-52 -21 0 -20 2 7 30 27 28 55 40 55 22z"/>
<path d="M4975 548 c-67 -61 -105 -117 -105 -154 0 -25 2 -26 40 -21 48 6 132
46 138 65 3 9 -14 4 -47 -12 -61 -31 -91 -34 -91 -7 0 25 17 37 64 45 55 10
76 26 96 70 38 83 -12 90 -95 14z m75 4 c0 -18 -42 -52 -63 -52 -20 1 -20 3
11 30 32 30 52 38 52 22z"/>
<path d="M5347 593 c-4 -3 -7 -16 -7 -29 l0 -22 273 1 c228 0 275 2 290 15 9
8 17 21 17 29 0 11 -53 13 -283 13 -156 0 -287 -3 -290 -7z"/>
</g>
</svg>
