<?xml version="1.0" standalone="no"?>
<!DOCTYPE svg PUBLIC "-//W3C//DTD SVG 20010904//EN"
 "http://www.w3.org/TR/2001/REC-SVG-20010904/DTD/svg10.dtd">
<svg version="1.0" xmlns="http://www.w3.org/2000/svg"
 width="40.000000pt" height="40.000000pt" viewBox="0 0 672.000000 670.000000"
 preserveAspectRatio="xMidYMid meet">

<g transform="translate(0.000000,670.000000) scale(0.100000,-0.100000)"
fill="#fff" stroke="none">
<path d="M4445 5403 c-82 -43 -267 -161 -353 -225 -323 -238 -543 -490 -697
-795 -164 -328 -198 -619 -104 -898 139 -410 535 -838 1154 -1246 162 -107
209 -135 415 -251 63 -36 141 -79 173 -97 31 -18 57 -30 57 -27 0 2 -55 47
-122 99 -507 390 -924 842 -1100 1191 -75 148 -118 314 -118 451 0 101 9 125
64 180 125 125 561 283 1101 400 117 25 158 36 153 40 -2 3 -141 -4 -309 -15
-638 -41 -833 -20 -949 106 -39 42 -40 46 -40 112 0 38 7 93 16 123 19 65 82
192 126 257 101 148 329 398 503 550 74 65 78 71 30 45z"/>
<path d="M3120 4854 c-172 -22 -358 -77 -515 -154 -457 -223 -777 -641 -877
-1143 -29 -148 -31 -443 -4 -581 68 -339 214 -616 451 -853 238 -237 503 -378
840 -445 155 -31 433 -31 584 0 287 59 514 167 746 356 50 40 105 93 105 101
0 1 -17 14 -38 27 l-38 26 -90 -69 c-128 -100 -335 -201 -488 -239 -486 -122
-965 2 -1322 342 -52 51 -125 130 -160 177 -65 85 -177 298 -209 396 -85 257
-96 560 -30 820 95 376 351 708 690 895 176 97 390 158 588 167 l128 6 21 31
c12 17 39 52 60 77 l38 47 -28 6 c-33 8 -403 16 -452 10z"/>
<path d="M4183 4771 c-94 -34 -198 -122 -228 -193 -8 -21 -15 -60 -15 -89 0
-44 4 -55 33 -84 54 -54 128 -67 232 -39 154 39 275 164 275 283 0 53 -35 106
-86 127 -47 20 -149 17 -211 -5z"/>
<path d="M3216 3444 c-88 -348 -363 -676 -769 -915 -48 -28 -86 -53 -84 -55 7
-7 261 57 387 98 303 98 528 219 683 368 l71 67 -66 100 c-73 110 -143 244
-178 341 -12 34 -24 62 -25 62 -1 0 -10 -30 -19 -66z"/>
</g>
</svg>
